PathFileType	4	(X/Y/Z)	/Users/visionmauri/Downloads/Videos/OAW06-top_Sports2D/OAW06-top_Sports2D_px_person00.trc
DataRate	CameraRate	NumFrames	NumMarkers	Units	OrigDataRate	OrigDataStartFrame	OrigNumFrames
30.0	30.0	11	22	m	30.0	265	2127
Frame#	Time	Hip			RHip			RKnee			RAnkle			RBigToe			RSmallToe			RHeel			LHip			LKnee			LAnkle			LBigToe			LSmallToe			LHeel			Neck			Head			Nose			RShoulder			RElbow			RWrist			LShoulder			LElbow			LWrist			
		X1	Y1	Z1	X2	Y2	Z2	X3	Y3	Z3	X4	Y4	Z4	X5	Y5	Z5	X6	Y6	Z6	X7	Y7	Z7	X8	Y8	Z8	X9	Y9	Z9	X10	Y10	Z10	X11	Y11	Z11	X12	Y12	Z12	X13	Y13	Z13	X14	Y14	Z14	X15	Y15	Z15	X16	Y16	Z16	X17	Y17	Z17	X18	Y18	Z18	X19	Y19	Z19	X20	Y20	Z20	X21	Y21	Z21	X22	Y22	Z22
265	8.837488240827847	634.5619570135519	819.2380342468238	0.0	619.6976176152995	821.2358685151679	0.0	621.3155627003914	886.698538757668	0.0	622.2491446643967	942.8407699845844	0.0	625.7445625993477	958.6097304773546	0.0	618.5594449232709	957.6914645860171	0.0	622.3421569603494	951.4016967908417	0.0	650.0211653199095	820.3318629866053	0.0	644.8528523322858	887.1162972315174	0.0	643.3859774189135	948.9228674286662	0.0	639.0181637645705	966.9525911596816	0.0	647.7838003507405	966.3716753671408	0.0	642.4753915352628	957.3211915271811	0.0	632.2302871649835	729.7215116638148	0.0	633.2105600361044	678.4573462623649	0.0	631.1543327751093	708.6103284522211	0.0	603.8606765224607	738.7274433210988	0.0	596.8555031910679	783.7835557917728	0.0	593.4724610397543	822.9537424552107	0.0	660.8999120851067	739.069204060529	0.0	668.9805780202524	785.1241479283088	0.0	675.2726096176846	825.6236312454844	0.0
266	8.870837253057386	634.8954974002087	819.9731542299928	0.0	619.7567737231956	821.967212554643	0.0	621.4856583652346	887.0563730984959	0.0	622.2745020415646	942.5525390052554	0.0	625.6138673334057	958.2873345655549	0.0	618.4077032816491	957.5143394529476	0.0	622.4214316077506	951.8200280272277	0.0	650.0938443899686	821.1147303238972	0.0	644.2458235376869	887.7020214545089	0.0	643.1944653578888	950.2233553183482	0.0	638.2769596348231	968.2103119564625	0.0	646.7225139278321	967.9571752758359	0.0	642.406078810472	959.3354123966266	0.0	632.5283552227016	730.2269780709861	0.0	633.4182298923309	679.4798740468331	0.0	631.3026074680879	709.5469919799116	0.0	604.1382795790838	739.7882576301901	0.0	597.1028098860319	784.6767708609057	0.0	593.3876116617976	823.3627180694955	0.0	661.2079226523674	740.3087021409686	0.0	669.5206945566221	786.1611273927768	0.0	675.9143867765526	826.078962352808	0.0
267	8.904186265286924	635.0443978363528	821.6254080007227	0.0	619.7508889622892	823.352754172663	0.0	621.5457969548285	887.769644511541	0.0	622.3338238972607	942.371149014575	0.0	625.2480826415709	958.7569564024413	0.0	618.2778782321246	957.8564255441017	0.0	622.4485631379669	951.9448206729921	0.0	650.1783710713572	822.7328669146866	0.0	643.8609143454778	888.4324717109663	0.0	642.5938665295778	951.4069723996091	0.0	637.3421682883301	969.4437610311697	0.0	645.8787016173789	969.4468720307297	0.0	641.9192819160382	961.1973192292552	0.0	632.9924998100606	732.5579232667764	0.0	633.527845168005	682.2425642739412	0.0	631.282729062956	711.4208903773648	0.0	604.4342607518461	741.4920393217661	0.0	597.4427538491792	785.9211087748084	0.0	593.2949694688768	824.2047440765245	0.0	661.7213083947029	741.7834293189794	0.0	670.4150671004077	787.8183774246269	0.0	677.0004749509035	827.4926475319492	0.0
268	8.937535277516464	635.029962755147	824.0045290321815	0.0	619.7203805073013	825.4389042866718	0.0	621.5041738688212	889.3050474129733	0.0	622.3159444894247	942.6384252148629	0.0	624.890051766017	959.5841300463773	0.0	618.3248721299628	958.3181013209523	0.0	622.3549092023328	952.1482237064068	0.0	650.3615981722205	825.1765889889837	0.0	643.4421138992441	889.9968072141936	0.0	641.6132857652585	953.0402855162883	0.0	636.6621239297348	971.5768386707674	0.0	645.4800810640301	971.6661510957329	0.0	640.7850074581793	963.0990597044996	0.0	633.6235257040264	735.1067966661027	0.0	633.6415599595626	685.0251405580718	0.0	631.3793512324705	713.9289237288358	0.0	604.863311429928	743.3133088110337	0.0	597.8110224395422	787.2846385616908	0.0	593.205042345131	825.307153209857	0.0	662.4939684721354	743.208842965379	0.0	671.4732644043933	789.6913801104134	0.0	678.0804006846732	829.7701120009924	0.0
269	8.970884289746003	635.2287133803981	825.9672135590271	0.0	619.8432922828222	827.4278558113513	0.0	621.4504161590697	891.0981578982747	0.0	622.134977328042	943.1108593500035	0.0	624.7604189606416	960.1496377642696	0.0	618.3661332235641	958.5429334156358	0.0	622.1302540899977	952.4258227014269	0.0	650.8636206213341	827.4222306579846	0.0	643.141962801615	892.1034700781515	0.0	640.4599868957222	955.2036738964604	0.0	636.4335825323716	974.4996942015591	0.0	645.465172529981	974.5039435674163	0.0	639.2803101430193	965.1718660721425	0.0	634.3058955265276	735.4440825533061	0.0	634.0036899834466	685.4488985250803	0.0	632.1014782875391	715.5066220540888	0.0	605.4523270001126	744.0373526958535	0.0	598.3309277707044	788.156143445427	0.0	593.1675330956764	826.0858258319081	0.0	663.3681314643691	743.9804146764263	0.0	672.3478958219748	790.9473587011593	0.0	678.8292747973528	832.063908325307	0.0
270	9.004233301975543	635.803533193005	826.9339496157361	0.0	620.2036967411719	828.5984945577441	0.0	621.4049355455167	892.0859615993405	0.0	621.8323790141004	942.8637130880356	0.0	624.8048098369686	960.4556571051811	0.0	618.2286797837216	958.377859663965	0.0	621.8223446756369	951.6603872169285	0.0	651.6466847200921	828.651826641686	0.0	643.3813153524108	893.7627543475754	0.0	639.6074940141569	957.6573824425095	0.0	636.4795542316158	977.4123525851298	0.0	645.6026146199775	977.1462244513591	0.0	638.3310030865701	967.3035291890659	0.0	635.001656934	734.2406124421818	0.0	634.612912718563	684.3899379182023	0.0	633.1846385508936	715.5769965600131	0.0	606.0891319928378	743.8741404075531	0.0	599.0635729412431	788.6724121077854	0.0	593.2411968900464	826.8346957120168	0.0	664.2740873684156	744.1174710805278	0.0	673.049969988706	791.4735302489447	0.0	679.3292961578071	833.6665605312822	0.0
271	9.037582314205082	636.561102378131	827.3965789619798	0.0	620.6531111133813	829.1784978657977	0.0	621.3796509034685	892.1661332992505	0.0	621.525173897787	941.3473270427037	0.0	624.9946351646969	960.6227109695764	0.0	618.1714945694621	957.6224857989573	0.0	621.5173035383617	948.9831159807327	0.0	652.4022033983082	829.1684365743531	0.0	644.152799720416	894.5584306978592	0.0	639.4283609059498	959.9334606257639	0.0	636.5026941133611	979.5212196215042	0.0	645.6920604758768	978.896964538816	0.0	638.3241738024768	969.0259076515129	0.0	635.7870239659851	733.5757517751709	0.0	635.2078102016596	684.2612516525152	0.0	633.9770294671188	715.1910597437578	0.0	606.731396436124	744.0566756442785	0.0	599.7879343494751	789.4183260918654	0.0	593.5531610127676	828.2483256157271	0.0	665.2879190510905	744.1463969441459	0.0	673.7683628980977	791.8903158315379	0.0	679.8151964137883	834.5256173483381	0.0
272	9.07093132643462	637.29329815747	827.8681935375774	0.0	621.1014449686634	829.6854697272383	0.0	621.3884819045336	892.0445761540535	0.0	621.1582765113577	939.313481523872	0.0	625.3410630272245	960.4491987106359	0.0	618.3223198198257	956.3532204406711	0.0	621.1510985443456	945.3687638483144	0.0	653.0040827035848	829.5923937763968	0.0	645.0550773199424	895.1035798291931	0.0	639.784912942794	961.4418613032541	0.0	636.4746569016175	980.5426893343305	0.0	645.7313288652821	979.6822091608602	0.0	638.636906167479	969.8204979222512	0.0	636.6320621004087	733.7969807955602	0.0	635.8194263704888	685.0778809077079	0.0	634.4804368628631	715.1474158916454	0.0	607.4379165788823	744.7407982933943	0.0	600.3587929544706	790.33906698043	0.0	594.2100252958953	830.0711313361998	0.0	666.3936899035854	744.3748917053679	0.0	674.4080044793658	792.515776786303	0.0	680.28583183661	834.995619646134	0.0
273	9.104280338664159	637.9641779434837	828.236406905911	0.0	621.709808271331	830.06003866906	0.0	621.4344830532187	892.0198763995378	0.0	620.6217097397838	937.9929080406289	0.0	625.4997333389321	960.017474674403	0.0	618.1339539627061	955.4002644628562	0.0	620.6348130629217	942.8167240557723	0.0	653.5556754735198	830.0363437532507	0.0	645.8831044367341	895.9436374907311	0.0	640.2455555504829	961.8232231176285	0.0	636.6907688044953	980.560326658654	0.0	645.832318490175	979.6551898040663	0.0	638.8100839133216	969.4496800152201	0.0	637.3656885239748	734.1293593940783	0.0	636.5906974373714	685.2982630365834	0.0	635.0103960762893	715.2301978290724	0.0	608.1925649459795	745.1119439724455	0.0	600.9339340576824	791.0262991439016	0.0	595.0470231141015	831.6690605120878	0.0	667.3145134286025	744.7229760203841	0.0	674.8978831987723	793.206190346633	0.0	680.5720674904778	835.5906500843997	0.0
274	9.137629350893699	638.5165780753371	828.1934148014184	0.0	622.3998767617072	829.8603423319104	0.0	621.580796968971	892.0506668768174	0.0	620.0490329778708	938.1976567373952	0.0	624.9062609608768	960.2447053191923	0.0	617.0474607072213	955.9182170276238	0.0	620.1139440623483	942.7249827051401	0.0	654.0324646564129	830.2892901602878	0.0	646.6223916869966	896.7396163230147	0.0	640.5247573858809	961.48762457386	0.0	637.1723670892679	979.913061161035	0.0	646.0100038431399	979.0332033348059	0.0	639.0333523541624	968.5272016009411	0.0	637.9200269146932	734.2820990980255	0.0	637.1606894408358	684.6950295078386	0.0	635.4658936458478	715.342271383193	0.0	608.7636725778076	744.9267777945387	0.0	601.5131942570507	791.5099862257462	0.0	595.7145657955427	833.0379929578162	0.0	667.8309272841954	744.9948709289382	0.0	675.4805680999091	793.9185984432368	0.0	680.7418459375615	836.7825687823674	0.0
275	9.170978363123238	638.7624599961597	827.8924567312669	0.0	622.7792376670438	829.1917916702039	0.0	621.9589518418687	892.5097697620957	0.0	619.6702002963102	940.5635888891329	0.0	623.5691027245439	962.272889058263	0.0	615.3886289560728	958.612348480094	0.0	619.729733895841	945.7085537779323	0.0	654.3005646264043	830.2987642172648	0.0	647.1866785110171	897.1817390957253	0.0	640.6188015672908	961.204845615077	0.0	637.3781539162131	979.2913282239437	0.0	646.0386801819109	978.3388626308935	0.0	639.4150645865659	967.9757068186632	0.0	638.3802220052688	734.4069259645623	0.0	637.2358281586507	684.1346932475634	0.0	635.6708208530414	715.7906178019476	0.0	608.8729062854504	744.5784464175844	0.0	601.8572188496722	792.0128533004538	0.0	596.0624122658414	834.2849598052402	0.0	668.1226138236863	745.0858819131004	0.0	676.3272301660286	794.6816299705891	0.0	680.9675301691669	838.4100988249004	0.0
